<svg xmlns="http://www.w3.org/2000/svg" viewBox="0 0 180 180" role="img" aria-label="MiniMatch bunny mascot">
  <defs>
    <linearGradient id="fur" x1="0" y1="0" x2="1" y2="1"><stop stop-color="#fff"/><stop offset=".55" stop-color="#fff6fb"/><stop offset="1" stop-color="#dff5ff"/></linearGradient>
    <linearGradient id="ear" x1="0" y1="0" x2="1" y2="1"><stop stop-color="#ffb9dd"/><stop offset="1" stop-color="#c9b8ff"/></linearGradient>
    <filter id="shadow"><feDropShadow dx="0" dy="8" stdDeviation="7" flood-color="#8796bd" flood-opacity=".25"/></filter>
  </defs>
  <g filter="url(#shadow)" stroke="#56627a" stroke-width="4" stroke-linejoin="round">
    <path fill="url(#fur)" d="M55 65C36 36 43 9 58 9c13 0 21 24 24 45 8-4 18-4 26 0 4-22 13-45 26-43 15 3 18 31-4 58 14 13 22 31 20 52-2 31-26 49-60 49s-57-19-59-49c-2-23 7-42 24-56z"/>
    <path fill="url(#ear)" stroke="none" d="M57 21c8 4 13 18 16 35-8 2-13 5-17 8-8-18-7-36 1-43zm76 3c7 9 6 27-4 43-5-5-10-8-16-10 5-18 12-31 20-33z"/>
    <circle cx="70" cy="104" r="5" fill="#4d5470" stroke="none"/><circle cx="111" cy="104" r="5" fill="#4d5470" stroke="none"/>
    <path d="M85 116c3 3 7 3 10 0" fill="none" stroke="#ff85bf" stroke-linecap="round"/>
    <path d="M86 117c-1 8-8 10-12 6m20-6c1 8 8 10 12 6" fill="none" stroke="#56627a" stroke-linecap="round"/>
    <ellipse cx="59" cy="118" rx="10" ry="5" fill="#ffbfdc" stroke="none" opacity=".75"/><ellipse cx="121" cy="118" rx="10" ry="5" fill="#ffbfdc" stroke="none" opacity=".75"/>
    <path d="M62 151c8-8 17-8 26-1m4 0c9-7 18-7 26 1" fill="none" stroke="#56627a" stroke-linecap="round"/>
  </g>
  <path d="M33 49l4 10 11 1-9 7 3 11-9-6-9 6 3-11-9-7 11-1z" fill="#fff3a8" stroke="#7c75a4" stroke-width="2"/>
  <path d="M148 78l3 7 8 1-6 5 2 8-7-4-7 4 2-8-6-5 8-1z" fill="#bdeaff" stroke="#7c75a4" stroke-width="2"/>
</svg>
